<svg xmlns="http://www.w3.org/2000/svg" version="1.1" xmlns:xlink="http://www.w3.org/1999/xlink" xmlns:svgjs="http://svgjs.dev/svgjs" width="2000" height="1500" viewBox="0 0 2000 1500"><rect width="2000" height="1500" fill="#97978d"></rect><g transform="matrix(0.75,0,0,0.75,249.090909090909,627.078406773748)"><svg viewBox="0 0 396 65" data-background-color="#97978d" preserveAspectRatio="xMidYMid meet" height="328" width="2000" xmlns="http://www.w3.org/2000/svg" xmlns:xlink="http://www.w3.org/1999/xlink"><g id="tight-bounds" transform="matrix(1,0,0,1,0.24000000000003752,-0.02071723696593608)"><svg viewBox="0 0 395.5199999999999 65.0414344739319" height="65.0414344739319" width="395.5199999999999"><g><svg viewBox="0 0 563.7067851733984 92.69897332718044" height="65.0414344739319" width="395.5199999999999"><g><rect width="6.048979073795662" height="80.49114905399169" x="146.302782346211" y="6.103912136594374" fill="#ffffff" opacity="1" stroke-width="0" stroke="transparent" fill-opacity="1" class="rect-qz-0" data-fill-palette-color="primary" rx="1%" id="qz-0" data-palette-color="#ffffff"></rect></g><g transform="matrix(1,0,0,1,168.18678517339845,12.811507891093683)"><svg viewBox="0 0 395.52 67.07595754499307" height="67.07595754499307" width="395.52"><g id="textblocktransform"><svg viewBox="0 0 395.52 67.07595754499307" height="67.07595754499307" width="395.52" id="textblock"><g><svg viewBox="0 0 395.52 67.07595754499307" height="67.07595754499307" width="395.52"><g transform="matrix(1,0,0,1,0,0)"><svg width="395.52" viewBox="0.6 -36.15 216.68 36.75" height="67.07595754499307" data-palette-color="#ffffff"><path d="M16.05 0L10.15 0 0.6-34.3 5.7-34.3 11.8-11.15Q11.95-10.6 12.18-9.58 12.4-8.55 12.65-7.45 12.9-6.35 13.05-5.5L13.05-5.5 13.4-5.5Q13.55-6.15 13.68-6.95 13.8-7.75 13.98-8.55 14.15-9.35 14.3-10.05 14.45-10.75 14.5-11.15L14.5-11.15 20.2-34.3 26.35-34.3 32.05-11.15Q32.2-10.6 32.43-9.58 32.65-8.55 32.88-7.45 33.1-6.35 33.25-5.5L33.25-5.5 33.6-5.5Q33.75-6.15 33.9-6.93 34.05-7.7 34.25-8.5 34.45-9.3 34.63-10 34.8-10.7 34.9-11.15L34.9-11.15 41.05-34.3 45.55-34.3 36 0 30.3 0 24.35-23.3Q24.2-24.05 24-25.08 23.8-26.1 23.6-27.2 23.4-28.3 23.25-29.1L23.25-29.1 22.95-29.1Q22.85-28.25 22.65-27.15 22.45-26.05 22.23-25 22-23.95 21.85-23.3L21.85-23.3 16.05 0ZM54 0.6L54 0.6Q52.55 0.6 51.1 0.25 49.65-0.1 48.4-0.9 47.15-1.7 46.4-3.13 45.65-4.55 45.65-6.7L45.65-6.7Q45.65-9.4 46.95-11.15 48.25-12.9 50.57-13.88 52.9-14.85 56.1-15.23 59.3-15.6 63.05-15.6L63.05-15.6 63.05-18.6Q63.05-20.05 62.55-21.1 62.05-22.15 60.77-22.73 59.5-23.3 57.15-23.3L57.15-23.3Q54.9-23.3 53.57-22.73 52.25-22.15 51.72-21.25 51.2-20.35 51.2-19.25L51.2-19.25 51.2-18.5 46.95-18.5Q46.9-18.75 46.9-19 46.9-19.25 46.9-19.6L46.9-19.6Q46.9-22 48.22-23.63 49.55-25.25 51.95-26.08 54.35-26.9 57.45-26.9L57.45-26.9Q60.75-26.9 62.97-25.95 65.2-25 66.32-23.25 67.45-21.5 67.45-19.05L67.45-19.05 67.45-4.8Q67.45-3.85 67.9-3.48 68.35-3.1 69-3.1L69-3.1 70.95-3.1 70.95-0.2Q70.25 0.1 69.4 0.33 68.55 0.55 67.45 0.55L67.45 0.55Q66.15 0.55 65.3 0.03 64.45-0.5 64-1.43 63.55-2.35 63.4-3.5L63.4-3.5 63.05-3.5Q62.15-2.25 60.77-1.33 59.4-0.4 57.7 0.1 56 0.6 54 0.6ZM55.1-3.1L55.1-3.1Q56.7-3.1 58.12-3.6 59.55-4.1 60.65-5.03 61.75-5.95 62.4-7.25 63.05-8.55 63.05-10.1L63.05-10.1 63.05-12.3Q59-12.3 56.15-11.85 53.3-11.4 51.77-10.25 50.25-9.1 50.25-7L50.25-7Q50.25-5.65 50.85-4.8 51.45-3.95 52.55-3.53 53.65-3.1 55.1-3.1ZM80.8 0.6L80.8 0.6Q78.75 0.6 77.6-0.18 76.45-0.95 75.95-2.23 75.45-3.5 75.45-4.95L75.45-4.95 75.45-22.6 72.05-22.6 72.05-26.3 75.55-26.3 76.35-33.65 79.85-33.65 79.85-26.3 84.8-26.3 84.8-22.6 79.85-22.6 79.85-5.6Q79.85-4.35 80.3-3.73 80.75-3.1 82-3.1L82-3.1 84.8-3.1 84.8-0.2Q84.3 0.05 83.6 0.2 82.9 0.35 82.17 0.48 81.45 0.6 80.8 0.6ZM99.49 0.6L99.49 0.6Q95.69 0.6 93.12-0.88 90.54-2.35 89.22-5.43 87.89-8.5 87.89-13.15L87.89-13.15Q87.89-17.8 89.22-20.85 90.54-23.9 93.17-25.4 95.79-26.9 99.64-26.9L99.64-26.9Q102.34-26.9 104.32-26.2 106.29-25.5 107.59-24.15 108.89-22.8 109.52-20.9 110.14-19 110.14-16.55L110.14-16.55 105.69-16.55Q105.69-18.85 105.07-20.33 104.44-21.8 103.09-22.53 101.74-23.25 99.54-23.25L99.54-23.25Q97.34-23.25 95.74-22.28 94.14-21.3 93.29-19.2 92.44-17.1 92.44-13.65L92.44-13.65 92.44-12.6Q92.44-9.35 93.27-7.2 94.09-5.05 95.69-4.05 97.29-3.05 99.59-3.05L99.59-3.05Q101.84-3.05 103.22-3.85 104.59-4.65 105.22-6.15 105.84-7.65 105.84-9.75L105.84-9.75 110.14-9.75Q110.14-7.55 109.52-5.65 108.89-3.75 107.59-2.35 106.29-0.95 104.29-0.18 102.29 0.6 99.49 0.6ZM119.84 0L115.44 0 115.44-36.15 119.84-36.15 119.84-23 120.19-23Q121.19-24.35 122.44-25.2 123.69-26.05 125.22-26.48 126.74-26.9 128.54-26.9L128.54-26.9Q131.04-26.9 132.92-26.05 134.79-25.2 135.87-23.3 136.94-21.4 136.94-18.15L136.94-18.15 136.94 0 132.54 0 132.54-17.55Q132.54-19.2 132.12-20.25 131.69-21.3 130.97-21.9 130.24-22.5 129.22-22.75 128.19-23 126.94-23L126.94-23Q125.09-23 123.44-22.13 121.79-21.25 120.82-19.58 119.84-17.9 119.84-15.45L119.84-15.45 119.84 0ZM166.24 0L144.44 0 144.44-34.3 149.19-34.3 149.19-4.15 166.24-4.15 166.24 0ZM174.79-31.25L170.39-31.25 170.39-36.15 174.79-36.15 174.79-31.25ZM174.79 0L170.39 0 170.39-26.3 174.79-26.3 174.79 0ZM190.83 0.6L190.83 0.6Q188.13 0.6 186.08 0.05 184.03-0.5 182.68-1.55 181.33-2.6 180.63-4.05 179.93-5.5 179.93-7.35L179.93-7.35Q179.93-7.6 179.93-7.83 179.93-8.05 179.98-8.2L179.98-8.2 184.33-8.2Q184.28-8 184.28-7.85 184.28-7.7 184.28-7.55L184.28-7.55Q184.33-5.8 185.21-4.8 186.08-3.8 187.63-3.4 189.18-3 191.08-3L191.08-3Q192.73-3 194.13-3.43 195.53-3.85 196.36-4.73 197.18-5.6 197.18-6.95L197.18-6.95Q197.18-8.6 196.11-9.47 195.03-10.35 193.28-10.85 191.53-11.35 189.63-11.9L189.63-11.9Q188.03-12.35 186.43-12.9 184.83-13.45 183.56-14.25 182.28-15.05 181.51-16.32 180.73-17.6 180.73-19.55L180.73-19.55Q180.73-21.3 181.46-22.65 182.18-24 183.53-24.95 184.88-25.9 186.81-26.38 188.73-26.85 191.08-26.85L191.08-26.85Q193.58-26.85 195.46-26.3 197.33-25.75 198.58-24.75 199.83-23.75 200.43-22.48 201.03-21.2 201.03-19.75L201.03-19.75Q201.03-19.45 201.03-19.18 201.03-18.9 200.98-18.75L200.98-18.75 196.68-18.75 196.68-19.3Q196.68-20.3 196.16-21.23 195.63-22.15 194.36-22.73 193.08-23.3 190.83-23.3L190.83-23.3Q189.38-23.3 188.33-23.08 187.28-22.85 186.58-22.38 185.88-21.9 185.53-21.28 185.18-20.65 185.18-19.85L185.18-19.85Q185.18-18.55 186.03-17.85 186.88-17.15 188.31-16.7 189.73-16.25 191.38-15.7L191.38-15.7Q193.13-15.2 194.96-14.68 196.78-14.15 198.31-13.35 199.83-12.55 200.76-11.18 201.68-9.8 201.68-7.55L201.68-7.55Q201.68-5.45 200.88-3.9 200.08-2.35 198.61-1.35 197.13-0.35 195.16 0.13 193.18 0.6 190.83 0.6ZM213.28 0.6L213.28 0.6Q211.23 0.6 210.08-0.18 208.93-0.95 208.43-2.23 207.93-3.5 207.93-4.95L207.93-4.95 207.93-22.6 204.53-22.6 204.53-26.3 208.03-26.3 208.83-33.65 212.33-33.65 212.33-26.3 217.28-26.3 217.28-22.6 212.33-22.6 212.33-5.6Q212.33-4.35 212.78-3.73 213.23-3.1 214.48-3.1L214.48-3.1 217.28-3.1 217.28-0.2Q216.78 0.05 216.08 0.2 215.38 0.35 214.66 0.48 213.93 0.6 213.28 0.6Z" opacity="1" transform="matrix(1,0,0,1,0,0)" fill="#ffffff" class="wordmark-text-0" data-fill-palette-color="primary" id="text-0"></path></svg></g></svg></g></svg></g></svg></g><g><svg viewBox="0 0 130.4677585928192 92.69897332718044" height="92.69897332718044" width="130.4677585928192"><g><svg xmlns="http://www.w3.org/2000/svg" xmlns:xlink="http://www.w3.org/1999/xlink" version="1.1" x="0" y="0" viewBox="10 21.58 80 56.840999999999994" enable-background="new 0 0 100 100" xml:space="preserve" height="92.69897332718044" width="130.4677585928192" class="icon-icon-0" data-fill-palette-color="accent" id="icon-0"><g fill="#ffffff" data-fill-palette-color="accent"><g fill="#ffffff" data-fill-palette-color="accent"><path d="M68.984 60.346c-4.03 0-7.559 2.633-9.499 6.57-1.229-0.947-2.684-1.498-4.242-1.498-1.827 0-3.511 0.754-4.855 2.02-1.739-2.738-4.454-4.504-7.507-4.504-1.177 0-2.305 0.264-3.345 0.744-0.591-0.969-1.653-1.617-2.871-1.617-1.859 0-3.367 1.506-3.367 3.365 0 1.205 0.638 2.26 1.591 2.855-0.325 0.617-0.603 1.275-0.829 1.965-0.263 0.174-0.513 0.371-0.747 0.594-1.199-1.891-3.075-3.109-5.182-3.109-3.62 0-6.558 3.59-6.558 8.018 0 1.479 0.979 2.672 2.187 2.672h8.741c0.088 0 0.174-0.008 0.259-0.02 0.076 0.012 0.154 0.02 0.234 0.02h3.556 3.783 8.88c0.128 0 0.251-0.012 0.374-0.027 0.111 0.016 0.226 0.027 0.341 0.027H60.56c0.163 0 0.325-0.02 0.481-0.055 0.183 0.033 0.365 0.055 0.554 0.055h14.779c2.042 0 3.697-2.021 3.697-4.518C80.071 66.418 75.104 60.346 68.984 60.346z" fill="#ffffff" data-fill-palette-color="accent"></path><circle cx="68.984" cy="52.255" r="6.8" fill="#ffffff" data-fill-palette-color="accent"></circle><circle cx="42.881" cy="56.001" r="5.8" fill="#ffffff" data-fill-palette-color="accent"></circle><circle cx="55.243" cy="59.597" r="4.9" fill="#ffffff" data-fill-palette-color="accent"></circle><circle cx="28.131" cy="62.943" r="4.0" fill="#ffffff" data-fill-palette-color="accent"></circle></g><path d="M10 21.58v45h12.254c-0.706-1.094-1.131-2.383-1.131-3.777 0-3.865 3.144-7.01 7.008-7.01 2.629 0 4.921 1.457 6.12 3.604 0.161-0.066 0.326-0.123 0.493-0.176-0.429-1.037-0.669-2.17-0.669-3.361 0-4.855 3.95-8.807 8.806-8.807 3.765 0 6.977 2.379 8.234 5.709 1.201-0.744 2.613-1.182 4.128-1.182 1.458 0 2.82 0.404 3.992 1.098-0.011-0.188-0.028-0.373-0.028-0.564 0-5.391 4.386-9.777 9.777-9.777s9.777 4.387 9.777 9.777c0 2.793-1.184 5.311-3.066 7.094 2.59 1.656 4.684 4.244 5.972 7.373H90v-45H10z" fill="#ffffff" data-fill-palette-color="accent"></path></g></svg></g></svg></g></svg></g><defs></defs></svg><rect width="395.5199999999999" height="65.0414344739319" fill="none" stroke="none" visibility="hidden"></rect></g></svg></g></svg>